<svg width="135" height="88" viewBox="0 0 135 88" fill="none" xmlns="http://www.w3.org/2000/svg">
<g clip-path="url(#clip0_174_120)">
<path d="M37.3224 52.5494H61.6286V59.2051H44.3398V66.6962H59.6479V73.3798H44.3398V80.9544H62.3077V87.6101H37.3224V52.5494Z" fill="#0679A6"/>
<path d="M98.4982 84.1013C98.0737 84.5468 97.4229 84.9924 96.5175 85.4658C95.612 85.9392 94.565 86.3569 93.4049 86.719C92.2165 87.1088 91.028 87.4152 89.8113 87.638C88.5946 87.8886 87.4345 88 86.3309 88C82.4827 88 79.1438 87.2759 76.3142 85.8C73.4846 84.3519 71.2775 82.3468 69.7495 79.7848C68.2215 77.2506 67.4575 74.3266 67.4575 71.0683C67.4575 67.8658 67.9386 65.081 68.9289 62.7139C69.9193 60.3468 71.2492 58.3696 72.9469 56.8101C74.6447 55.2506 76.5971 54.081 78.8042 53.3013C81.0113 52.5494 83.3316 52.1595 85.765 52.1595C88.057 52.1595 90.1509 52.4101 92.0467 52.9114C93.9425 53.4126 95.5554 54.0253 96.8853 54.7494L94.6216 61.1823C94.0274 60.8759 93.2634 60.5418 92.3014 60.2354C91.3393 59.9291 90.3489 59.6506 89.3586 59.4557C88.3682 59.2607 87.4628 59.1494 86.6988 59.1494C82.8505 59.1494 79.9077 60.0962 77.8421 61.9899C75.7765 63.8835 74.7296 66.724 74.7296 70.4835C74.7296 72.6835 75.2389 74.5772 76.2293 76.1645C77.2196 77.7519 78.6344 78.9772 80.4171 79.8405C82.1997 80.7038 84.237 81.1215 86.529 81.1215C87.5194 81.1215 88.4531 81.038 89.302 80.8987C90.1509 80.7595 90.8583 80.5367 91.4242 80.2025V75.9696H85.284V69.2861H98.5548V84.1013H98.4982Z" fill="#0679A6"/>
<path d="M118.305 74.9393C119.975 74.9393 121.107 73.2684 120.512 71.7646L118.362 66.4177L116.127 71.7367C115.447 73.2684 116.608 74.9393 118.305 74.9393ZM102.46 87.6102L118.532 51.157H118.928L135 87.6102H126.851L124.078 80.7595H112.25L109.336 87.6102H102.46Z" fill="#0679A6"/>
<path d="M7.0174 80.9544H11.1769C14.7139 80.9544 17.6001 80.0633 19.7789 78.2253C21.9577 76.4152 23.0612 73.7418 23.0612 70.2329C23.0612 67.9494 22.6934 66.0836 21.9294 64.6355C21.1654 63.1874 20.2316 62.0734 19.1281 61.2658C18.0245 60.4582 16.8644 59.9291 15.7043 59.6228C14.5441 59.3165 13.5538 59.1772 12.7615 59.1772H7.0174V80.9544ZM0 87.6101V52.5494H10.6393C14.2329 52.5494 17.2605 53.0785 19.7789 54.1089C22.2972 55.1671 24.3345 56.5595 25.8625 58.3139C27.3905 60.0684 28.5223 62.0177 29.2297 64.162C29.9371 66.3342 30.305 68.5063 30.305 70.6785C30.305 73.2962 29.8239 75.6355 28.8902 77.6962C27.9281 79.7848 26.6265 81.5671 24.9853 83.0431C23.3442 84.519 21.42 85.6608 19.2695 86.4405C17.1191 87.2203 14.8271 87.6101 12.3936 87.6101H0Z" fill="#0679A6"/>
<path d="M89.585 36.2025C87.0383 36.7595 82.3129 37.7899 76.4274 36.481C73.8241 35.8962 72.0698 35.0886 69.6929 33.9747C65.4202 31.9975 62.9585 30.1595 58.8273 27.319C56.4221 25.6759 50.2819 21.443 44.5661 18.0734C41.595 16.319 37.7751 14.2025 33.1346 12.0582C37.9732 9.2734 42.5571 7.85315 46.8298 7.85315C47.8202 7.85315 48.8388 7.93669 49.8009 8.07593C51.442 8.32657 53.451 8.66074 71.1643 21.2202C79.9361 27.4582 84.803 30.8835 91.9335 31.7747C93.0937 31.9139 94.2821 31.9975 95.4705 31.9975C96.2345 31.9975 96.9985 31.9696 97.7625 31.9139C97.1117 32.5823 96.0647 33.5291 94.65 34.3645C93.4615 35.0607 91.9901 35.6734 89.585 36.2025Z" fill="#0679A6"/>
<path d="M71.4756 48.0658C67.599 48.0658 64.1752 47.4253 62.336 47.0633C60.2138 46.6734 57.9784 46.0329 55.8562 45.281C52.0928 43.9164 49.4896 42.3569 48.3578 41.6886C44.7642 39.5443 40.9442 37.1772 37.2941 34.9493C32.2574 31.8582 27.5037 28.962 24.3062 27.124C19.9486 24.6177 15.3081 22.2785 10.5544 20.2177C14.5441 17.8506 18.5055 16.1519 22.1274 15.2607C23.8252 14.843 25.24 14.6481 26.5699 14.6481C26.9094 14.6481 27.2207 14.6481 27.532 14.6759C30.1918 14.843 32.1725 15.6785 33.4458 16.2911C37.9166 18.3797 45.698 23.1139 55.4318 29.5747L55.6864 29.7417C65.1373 36.0354 71.3624 40.1848 80.1058 40.7974C80.8415 40.8531 81.5772 40.881 82.2846 40.881C84.52 40.881 86.7554 40.6304 89.0191 40.1848C88.3966 40.7417 87.774 41.2709 87.1515 41.8C85.6236 43.1088 84.2653 44.2506 83.4165 44.8911C80.4737 46.9797 76.4557 48.0658 71.4756 48.0658Z" fill="#0679A6"/>
<path d="M75.8897 22.1949C74.0505 20.9139 72.2395 19.6608 70.5135 18.4076C70.9096 18.0456 71.3341 17.6835 71.7302 17.3215C76.9367 12.6987 78.0685 12.3367 79.0872 12.0304C79.0872 12.0304 81.3508 11.3063 84.237 11.2785C86.3875 11.2506 90.9432 11.919 96.5741 14.0354C95.8101 14.2582 94.6499 14.6203 93.32 15.2329C90.7168 16.4304 89.1888 17.7392 85.3689 20.9139C84.3219 21.7772 82.5393 23.2532 80.219 25.1468C78.7759 24.1443 77.3328 23.1975 75.8897 22.1949Z" fill="#4D9843"/>
<path d="M92.4712 29.881C89.8114 29.5469 87.774 28.8785 86.8403 28.5443C84.7747 27.7924 83.1052 26.9013 81.8885 26.1215C83.4165 24.8405 84.9727 23.5874 86.5573 22.3063C88.0853 21.081 89.6133 19.8557 91.1413 18.6582C92.358 17.7671 94.2821 16.5975 96.857 15.8734C100.083 14.9544 102.686 15.2051 104.837 15.4C107.468 15.6507 111.769 16.4304 116.664 19.0203C114.655 20.162 112.618 21.3317 110.637 22.557C107.694 24.3393 105.516 25.7595 104.695 26.2886C102.658 27.6253 100.875 28.8506 99.3754 29.881C97.4796 30.1038 95.131 30.2152 92.4712 29.881Z" fill="#4D9843"/>
<path d="M52.0928 6.68353C52.7719 5.6253 53.9887 4.09365 55.9411 2.7291C56.7617 2.17214 58.2896 1.2253 60.4118 0.612642C62.1096 0.111376 63.6659 0.027832 64.6562 0.027832C68.2215 0.0835282 70.7965 1.2253 72.0132 1.9215C72.9752 2.47846 75.4653 4.06581 77.3894 7.10125C77.9836 8.04808 78.493 9.05062 78.8891 10.1088C78.8325 10.1367 78.7193 10.1645 78.6061 10.1924C76.3991 10.8607 74.8145 12.0582 71.2775 15.1772C70.6267 15.762 69.8061 16.4861 68.9006 17.2937C64.7411 14.5088 61.4588 12.3088 59.1385 10.6937C58.2048 10.0531 56.4504 8.79998 53.8472 7.51897C53.1115 7.1291 52.489 6.85062 52.0928 6.68353Z" fill="#F8AD43"/>
</g>
<defs>
<clipPath id="clip0_174_120">
<rect width="135" height="88" fill="white"/>
</clipPath>
</defs>
</svg>
